<svg width="370" height="47" viewBox="0 0 370 47" fill="none" xmlns="http://www.w3.org/2000/svg">
<path d="M13.1891 27.425C13.1891 28.075 13.0391 28.6167 12.7391 29.05C12.3557 29.6 11.9141 30.0583 11.4141 30.425C10.8641 30.8083 10.2307 31 9.51406 31H2.21406V16H9.51406C10.2141 16 10.8474 16.2 11.4141 16.6C11.5807 16.7333 11.8057 16.95 12.0891 17.25C12.3891 17.55 12.6057 17.7833 12.7391 17.95C13.0391 18.4 13.1891 18.9583 13.1891 19.625V21.425C13.1891 22.2083 12.9141 22.9083 12.3641 23.525C12.9141 24.125 13.1891 24.825 13.1891 25.625V27.425ZM10.1391 27.425V25.6C10.0391 25.4333 9.91406 25.275 9.76406 25.125C9.61406 24.975 9.51406 24.9 9.46406 24.9H5.26406V28.075H9.48906C9.53906 28.075 9.63906 28.0083 9.78906 27.875C9.93906 27.725 10.0557 27.575 10.1391 27.425ZM10.1391 21.45V19.625C10.0391 19.4583 9.91406 19.3 9.76406 19.15C9.61406 19 9.51406 18.925 9.46406 18.925H5.26406V22.075H9.48906C9.53906 22.075 9.63906 22.0083 9.78906 21.875C9.93906 21.725 10.0557 21.5833 10.1391 21.45ZM28.2324 31H18.5324V16H21.5824V28.05H28.2324V31ZM45.3012 31H42.0512L41.0512 28.125H35.8262C35.7262 28.4417 35.5512 28.925 35.3012 29.575C35.0678 30.2083 34.9012 30.6833 34.8012 31H31.5512L36.7512 16H40.1262L45.3012 31ZM40.1262 25.2L38.4262 20.375C38.2428 20.9083 37.9595 21.7167 37.5762 22.8C37.2095 23.8667 36.9345 24.6667 36.7512 25.2H40.1262ZM61.0281 19.6L58.2031 20.4C57.8865 19.7333 57.4448 19.2083 56.8781 18.825H53.7531C53.3531 19.1083 53.0281 19.4417 52.7781 19.825V27.275C52.7781 27.2917 52.8115 27.35 52.8781 27.45C52.9615 27.55 53.0781 27.675 53.2281 27.825C53.3948 27.975 53.5698 28.1 53.7531 28.2H56.9281C57.3948 27.8833 57.8198 27.3833 58.2031 26.7L61.0531 27.4C60.8531 27.9667 60.5698 28.5 60.2031 29C59.2031 30.4167 58.1031 31.125 56.9031 31.125H53.6281C53.0615 31.125 52.5115 30.9667 51.9781 30.65C51.7281 30.5 51.4115 30.2333 51.0281 29.85C50.6448 29.45 50.3531 29.1167 50.1531 28.85C49.8698 28.4 49.7281 27.8833 49.7281 27.3V19.725C49.7281 19.1083 49.8698 18.5917 50.1531 18.175C50.3365 17.925 50.6198 17.6 51.0031 17.2C51.4031 16.8 51.7365 16.525 52.0031 16.375C52.5698 16.0583 53.1115 15.9 53.6281 15.9H56.9031C58.0698 15.9 59.1615 16.6 60.1781 18C60.5115 18.4667 60.7948 19 61.0281 19.6ZM77.5953 31H73.8953L69.4203 24.8H69.1703V31H66.1203V16H69.1703V22.1H69.4203C69.4536 22.1 69.8453 21.5917 70.5953 20.575C71.3453 19.5583 72.087 18.5417 72.8203 17.525L73.9203 16H77.5203L71.9953 23.4L77.5953 31ZM91.6295 18.925H84.8295V22H91.2795V24.925H84.8295V31H81.7795V16H91.6295V18.925ZM108.476 27.275C108.476 27.8917 108.334 28.4083 108.051 28.825C107.351 29.725 106.743 30.3333 106.226 30.65C105.693 30.9667 105.143 31.125 104.576 31.125H100.776C100.209 31.125 99.6593 30.9667 99.126 30.65C98.876 30.5 98.551 30.225 98.151 29.825C97.7676 29.4083 97.4843 29.075 97.301 28.825C97.0176 28.4083 96.876 27.8917 96.876 27.275V19.75C96.876 19.1167 97.0176 18.5917 97.301 18.175C97.4843 17.925 97.7676 17.6 98.151 17.2C98.551 16.8 98.876 16.525 99.126 16.375C99.6593 16.0583 100.209 15.9 100.776 15.9H104.576C105.143 15.9 105.693 16.0583 106.226 16.375C106.693 16.6417 107.301 17.2417 108.051 18.175C108.334 18.5917 108.476 19.1167 108.476 19.75V27.275ZM105.426 27.275V19.75C105.193 19.35 104.893 19.0417 104.526 18.825H100.851C100.484 19.0917 100.176 19.4083 99.926 19.775V27.275C100.259 27.725 100.559 28.0333 100.826 28.2H104.501C104.818 27.9667 105.126 27.6583 105.426 27.275ZM125.127 16L120.752 23.375L125.302 31H121.902L119.077 26.125L116.252 31H112.852L117.377 23.375L113.027 16H116.427L119.077 20.625L121.752 16H125.127ZM251.163 31H248.088L243.238 22.175V31H240.188V16H243.313L248.113 24.95V16H251.163V31ZM268.125 27.275C268.125 27.8917 267.983 28.4083 267.7 28.825C267.516 29.0917 267.233 29.425 266.85 29.825C266.466 30.225 266.15 30.5 265.9 30.65C265.333 30.9667 264.783 31.125 264.25 31.125H260.675C260.108 31.125 259.558 30.9667 259.025 30.65C258.775 30.5 258.45 30.225 258.05 29.825C257.666 29.4083 257.383 29.075 257.2 28.825C256.916 28.4083 256.775 27.8917 256.775 27.275V16H259.825V27.25C260.225 27.75 260.533 28.0667 260.75 28.2H264.175C264.491 28 264.791 27.6917 265.075 27.275V16H268.125V27.275ZM284.031 18.925H280.006V31H276.931V18.925H272.881V16H284.031V18.925ZM299.874 21.725C299.874 22.3417 299.716 22.8833 299.399 23.35C299.299 23.5167 299.091 23.75 298.774 24.05C298.474 24.35 298.233 24.5667 298.049 24.7C297.916 24.8 297.716 24.9167 297.449 25.05L300.699 31H297.299L294.324 25.275H291.924V31H288.874V16H296.174C296.908 16 297.533 16.1917 298.049 16.575C298.549 16.9583 298.999 17.4167 299.399 17.95C299.716 18.3833 299.874 18.9333 299.874 19.6V21.725ZM296.824 21.75V19.525C296.658 19.2583 296.441 19.0583 296.174 18.925H291.924V22.35H296.174C296.224 22.35 296.324 22.2833 296.474 22.15C296.641 22 296.758 21.8667 296.824 21.75ZM308.685 31H305.61V16H308.685V31ZM324.807 18.925H320.782V31H317.707V18.925H313.657V16H324.807V18.925ZM332.826 31H329.751V16H332.826V31ZM350.073 27.275C350.073 27.8917 349.931 28.4083 349.648 28.825C348.948 29.725 348.339 30.3333 347.823 30.65C347.289 30.9667 346.739 31.125 346.173 31.125H342.373C341.806 31.125 341.256 30.9667 340.723 30.65C340.473 30.5 340.148 30.225 339.748 29.825C339.364 29.4083 339.081 29.075 338.898 28.825C338.614 28.4083 338.473 27.8917 338.473 27.275V19.75C338.473 19.1167 338.614 18.5917 338.898 18.175C339.081 17.925 339.364 17.6 339.748 17.2C340.148 16.8 340.473 16.525 340.723 16.375C341.256 16.0583 341.806 15.9 342.373 15.9H346.173C346.739 15.9 347.289 16.0583 347.823 16.375C348.289 16.6417 348.898 17.2417 349.648 18.175C349.931 18.5917 350.073 19.1167 350.073 19.75V27.275ZM347.023 27.275V19.75C346.789 19.35 346.489 19.0417 346.123 18.825H342.448C342.081 19.0917 341.773 19.4083 341.523 19.775V27.275C341.856 27.725 342.156 28.0333 342.423 28.2H346.098C346.414 27.9667 346.723 27.6583 347.023 27.275ZM366.524 31H363.449L358.599 22.175V31H355.549V16H358.674L363.474 24.95V16H366.524V31Z" fill="#8A8A8C"/>
<path d="M168.219 15.0016C168.299 15.625 168.393 16.247 168.474 16.8709C168.558 17.518 168.594 18.1754 168.724 18.8129C168.969 20.0118 169.251 21.2038 169.549 22.3911C169.82 23.4707 170.257 24.494 170.753 25.4859C171.216 26.4099 171.767 27.2839 172.455 28.0644C173.037 28.7252 173.676 29.3316 174.472 29.7127C174.913 29.9231 175.425 29.9934 175.911 30.1005C177.086 30.356 178.264 30.5964 179.443 30.8408C180.264 31.0108 181.087 31.1785 181.91 31.344C182.121 31.3861 182.335 31.4118 182.547 31.4453C182.553 31.4215 182.558 31.3968 182.564 31.3735C182.483 31.3251 182.402 31.2766 182.321 31.2252C181.403 30.6473 180.453 30.1131 179.574 29.48C178.349 28.5982 177.227 27.5893 176.164 26.5136C175.689 26.0347 175.222 25.5596 175.041 24.8789C174.847 24.1421 174.62 23.413 174.437 22.6727C174.262 21.9615 174.103 21.2441 173.978 20.5227C173.829 19.6651 173.711 18.8013 173.6 17.9374C173.358 16.0467 173.123 14.159 173.186 12.2466C173.216 11.3492 173.283 10.4597 173.555 9.59675C173.864 8.6175 174.424 7.82101 175.267 7.22764C176.111 6.63427 177.08 6.29056 178.073 6.03702C179.24 5.73889 180.433 5.55621 181.636 5.49164C183.24 5.40535 184.849 5.36075 186.456 5.37045C188.511 5.38305 190.553 5.56436 192.544 6.12477C193.537 6.404 194.473 6.79328 195.269 7.46906C195.948 8.03899 196.42 8.81602 196.614 9.68062C196.752 10.2754 196.872 10.8868 196.891 11.4937C196.924 12.5239 196.897 13.5574 196.848 14.5876C196.772 16.2957 196.587 17.9973 196.295 19.6821C196.108 20.752 195.911 21.82 195.713 22.8875C195.663 23.1565 195.599 23.4226 195.519 23.6844C195.357 24.2138 195.186 24.7401 195.005 25.2634C194.943 25.4423 194.876 25.6367 194.754 25.7738C194.409 26.1646 194.056 26.5543 193.666 26.8995C192.826 27.6422 191.986 28.3892 191.098 29.0723C190.348 29.6443 189.539 30.1436 188.743 30.6536C188.386 30.882 187.994 31.0545 187.617 31.2523L187.633 31.327C187.714 31.3247 187.795 31.3176 187.876 31.3057C188.208 31.2373 188.537 31.1602 188.869 31.0919C189.748 30.9154 190.629 30.7472 191.507 30.5683C192.653 30.3342 193.801 30.1039 194.943 29.8484C195.266 29.7818 195.575 29.6634 195.86 29.4979C196.846 28.8958 197.633 28.0794 198.293 27.1351C198.956 26.197 199.499 25.1798 199.91 24.1072C200.201 23.3417 200.508 22.5767 200.708 21.786C201.002 20.6226 201.263 19.446 201.436 18.2602C201.724 16.2964 201.955 14.3238 202.164 12.3503C202.32 10.8722 202.236 9.39606 201.855 7.95287C201.376 6.13689 200.402 4.63617 198.932 3.45072C197.564 2.34446 195.995 1.6391 194.323 1.14657C193.767 0.983196 193.202 0.849397 192.634 0.733534C191.83 0.570163 191.024 0.397582 190.208 0.297232C189.199 0.175552 188.182 0.096533 187.167 0.0548426C186.062 0.00684996 184.953 -0.0193271 183.849 0.0170314C182.357 0.0655093 180.863 0.131439 179.389 0.404855C178.384 0.591008 177.371 0.747109 176.381 0.989499C175.38 1.24047 174.407 1.5938 173.479 2.04389C172.311 2.60188 171.243 3.30432 170.348 4.23897C169.489 5.1267 168.843 6.19673 168.456 7.36919C168.165 8.2481 167.95 9.13524 167.94 10.0612C167.93 10.9871 167.916 11.9004 167.964 12.8171C168.002 13.5477 168.128 14.2739 168.219 15.0016Z" fill="#8A8A8C"/>
<path d="M210 43.941C209.928 37.9759 209.858 32.0107 209.791 26.0453H209.797C209.772 24.3418 209.748 22.6386 209.723 20.9358C209.67 16.6901 209.617 12.4442 209.566 8.19819C209.57 8.06116 209.566 7.92403 209.552 7.78758C209.501 7.43078 209.123 7.17724 208.883 7.35613C208.671 7.51416 208.453 7.70614 208.329 7.93301C208.056 8.43806 207.815 8.95937 207.606 9.494C207.36 10.0999 207.148 10.7193 206.972 11.3493C206.758 12.1477 206.583 12.9592 206.438 13.7731C206.296 14.5658 206.187 15.3661 206.102 16.167C205.996 17.169 205.905 18.174 205.851 19.1799C205.779 20.5096 205.739 21.8413 205.708 23.1725C205.699 23.5497 205.77 23.9341 206.033 24.2361C206.28 24.5274 206.542 24.8052 206.819 25.0685C207.166 25.3909 207.449 25.7666 207.595 26.2019C207.714 26.5865 207.767 26.9883 207.753 27.3906C207.68 30.642 207.58 33.8934 207.5 37.1448C207.445 39.4044 207.409 41.6644 207.368 43.9245C207.366 44.0774 207.382 44.2301 207.416 44.3792C207.484 44.6832 207.708 44.8979 208.021 44.9125C208.458 44.9333 208.894 44.9299 209.328 44.9125C209.451 44.9071 209.582 44.8291 209.69 44.7564C209.98 44.561 210.004 44.2604 210 43.941Z" fill="#8A8A8C"/>
<path d="M190.987 18.1793C192.305 17.0565 193.626 15.9367 194.95 14.8197C195.155 14.6462 195.161 14.5599 194.933 14.4198C194.222 13.9835 193.506 13.553 192.786 13.1284C191.925 12.6208 190.989 12.2785 190.044 11.9751C189.325 11.7418 188.588 11.5647 187.842 11.4452C186.911 11.2998 185.966 11.2445 185.028 11.1505C184.083 11.2474 183.144 11.2906 182.224 11.4486C181.404 11.5892 180.595 11.8243 179.798 12.0759C179.098 12.2979 178.395 12.5456 177.745 12.8811C176.847 13.345 175.998 13.8992 175.13 14.4217C174.893 14.5648 174.901 14.6365 175.107 14.8125C175.575 15.2114 176.037 15.6177 176.508 16.0138C177.417 16.7787 178.335 17.5335 179.236 18.3068C179.421 18.4648 179.572 18.4653 179.78 18.3829C180.989 17.8981 182.258 17.6557 183.547 17.5452C184.877 17.4313 186.208 17.4482 187.535 17.6489C188.441 17.7856 189.343 17.9427 190.176 18.3223C190.535 18.4837 190.74 18.3882 190.987 18.1793Z" fill="#8A8A8C"/>
<path d="M163.836 15.8582C163.757 14.8208 163.695 13.7819 163.626 12.7435C163.615 12.5787 163.526 12.5011 163.364 12.4933C163.143 12.4846 163.09 12.5472 163.093 12.8404C163.112 14.6568 163.132 16.4732 163.153 18.2899C163.153 18.4649 163.123 18.5982 162.911 18.6001C162.717 18.6001 162.624 18.5192 162.62 18.3092C162.595 17.1632 162.564 16.0172 162.527 14.8712C162.502 14.1537 162.458 13.4362 162.43 12.7183C162.423 12.5365 162.34 12.4827 162.17 12.4924C161.965 12.5045 161.976 12.6538 161.971 12.7881C161.942 13.9099 161.911 15.0316 161.89 16.1539C161.876 16.8811 161.879 17.6083 161.872 18.3354C161.872 18.5676 161.761 18.6505 161.532 18.621C161.324 18.5943 161.338 18.4435 161.335 18.2952C161.303 16.487 161.27 14.6787 161.238 12.8705C161.238 12.8143 161.238 12.7575 161.232 12.7013C161.221 12.5559 161.15 12.4948 160.996 12.4924C160.782 12.4895 160.764 12.6276 160.758 12.7794C160.736 13.3611 160.716 13.942 160.697 14.5221C160.656 15.7889 160.611 17.0556 160.584 18.3228C160.579 18.5385 160.43 18.634 160.231 18.5977C160.053 18.5652 160.044 18.4295 160.046 18.2821C160.069 16.5867 160.089 14.8912 160.108 13.1958C160.108 13.0504 160.119 12.9049 160.115 12.7595C160.109 12.5617 160.01 12.4735 159.804 12.4938C159.619 12.5118 159.614 12.6446 159.605 12.7721C159.56 13.4159 159.525 14.0602 159.474 14.7035C159.377 15.9154 159.271 17.1303 159.174 18.3437C159.116 19.1455 159.056 19.9502 159.008 20.7559C158.991 21.0124 159.001 21.27 159.039 21.5243C159.128 22.0789 159.549 22.4207 159.928 22.7692C160.625 23.4115 160.952 24.1857 160.908 25.1301C160.871 25.9445 160.843 26.7594 160.825 27.5748C160.735 31.5691 160.648 35.5635 160.562 39.5581C160.529 41.0124 160.498 42.4668 160.435 43.9158C160.413 44.4277 160.84 44.8718 161.342 44.8393C161.527 44.8272 161.713 44.8393 161.899 44.8369C162.418 44.831 162.77 44.4834 162.759 43.9613C162.733 42.7106 162.693 41.4604 162.666 40.2092C162.623 38.2642 162.583 36.319 162.547 34.3734H162.512C162.512 33.7916 162.524 33.2099 162.512 32.6282C162.45 30.0695 162.374 27.5118 162.324 24.9531C162.317 24.5997 162.398 24.2337 162.499 23.8915C162.672 23.3097 163.125 22.9166 163.548 22.5152C163.927 22.1565 164.233 21.7589 164.224 21.2131C164.215 20.657 164.179 20.1005 164.136 19.5454C164.04 18.318 163.929 17.0886 163.836 15.8582Z" fill="#8A8A8C"/>
<path d="M181.507 46.4128C181.064 45.4584 180.622 44.5036 180.18 43.5483C179.898 42.9394 179.612 42.3324 179.332 41.7231C179.138 41.2989 178.944 40.9392 178.398 40.8063C177.703 40.6376 177.039 40.3361 176.374 40.0598C175.782 39.8135 175.197 39.5449 174.627 39.2478C173.389 38.5961 172.212 37.8335 171.112 36.9693C170.064 36.1455 169.079 35.2459 168.164 34.2778C168.11 34.2216 168.081 34.1416 168.039 34.0728L167.911 34.1518C168.002 34.4203 168.073 34.6991 168.19 34.9565C168.643 35.9503 169.074 36.9567 169.582 37.9224C170.518 39.7104 171.74 41.3338 173.199 42.729C174.02 43.5138 174.893 44.2395 175.871 44.8135C176.631 45.2595 177.429 45.644 178.229 46.0143C179.281 46.4991 180.405 46.7648 181.537 46.9921C181.707 47.0261 181.75 46.9475 181.693 46.8045C181.641 46.6707 181.568 46.5442 181.507 46.4128Z" fill="#8A8A8C"/>
<path d="M202.019 34.1716C201.922 34.2686 201.825 34.3656 201.731 34.4625C200.678 35.5571 199.548 36.5674 198.313 37.4526C197.73 37.87 197.14 38.2821 196.517 38.6369C195.693 39.1067 194.847 39.5362 193.994 39.9459C193.49 40.1882 192.956 40.3749 192.428 40.5664C192.037 40.7079 191.632 40.8088 191.239 40.9479C191.144 40.9917 191.067 41.0678 191.024 41.1626C190.751 41.7143 190.485 42.2696 190.226 42.8283C189.611 44.1469 189.001 45.4673 188.393 46.7895C188.375 46.8472 188.365 46.907 188.363 46.9674C188.423 46.9752 188.488 47.0018 188.543 46.9878C189.368 46.7711 190.203 46.5796 191.015 46.3207C192.519 45.8417 193.887 45.085 195.161 44.161C196.154 43.4411 197.076 42.6373 197.859 41.6925C198.455 40.9716 199.027 40.2256 199.557 39.4533C200 38.7954 200.404 38.1117 200.765 37.4056C201.133 36.6998 201.445 35.9634 201.763 35.2338C201.913 34.8915 202.025 34.5338 202.155 34.1828L202.084 34.1484C202.061 34.1556 202.034 34.1571 202.019 34.1716Z" fill="#8A8A8C"/>
<path d="M202.122 21.9324C201.509 23.4543 200.899 24.9767 200.291 26.4995C200.23 26.6512 200.234 26.7841 200.348 26.9256C200.498 27.1113 200.616 27.3227 200.75 27.5224C201.419 28.5243 202.09 29.5261 202.761 30.528C202.803 30.5901 202.876 30.6313 202.95 30.6967C203.408 28.3005 203.031 23.1977 202.275 21.6837C202.218 21.7628 202.167 21.8459 202.122 21.9324Z" fill="#8A8A8C"/>
<path d="M169.772 26.4845C169.502 25.8131 169.238 25.1398 168.972 24.4674C168.628 23.6041 168.283 22.7399 167.937 21.8748C167.913 21.8147 167.857 21.7667 167.781 21.6663C166.9 24.6652 166.709 27.6466 167.123 30.69C167.236 30.6107 167.335 30.5122 167.414 30.3991C168.18 29.2512 168.938 28.0984 169.711 26.9543C169.821 26.7919 169.841 26.6576 169.772 26.4845Z" fill="#8A8A8C"/>
<path d="M182.575 41.4138H181.932L181.899 41.4667C182.044 41.582 182.183 41.7018 182.33 41.8128C183.178 42.4517 184.028 43.0853 184.871 43.7306C185.01 43.8367 185.098 43.8304 185.229 43.7306C186.142 43.032 187.061 42.3407 187.976 41.646C188.03 41.5967 188.08 41.5425 188.125 41.4841C188.054 41.4584 187.981 41.4408 187.907 41.4318C186.13 41.4234 184.353 41.4174 182.575 41.4138Z" fill="#8A8A8C"/>
</svg>
