<svg width="20" height="20" viewBox="0 0 20 20" fill="none" xmlns="http://www.w3.org/2000/svg">
<path d="M1.25 3.125C1.25 2.62772 1.44754 2.15081 1.79917 1.79917C2.15081 1.44754 2.62772 1.25 3.125 1.25H6.875C7.37228 1.25 7.84919 1.44754 8.20083 1.79917C8.55246 2.15081 8.75 2.62772 8.75 3.125V6.875C8.75 7.37228 8.55246 7.84919 8.20083 8.20083C7.84919 8.55246 7.37228 8.75 6.875 8.75H3.125C2.62772 8.75 2.15081 8.55246 1.79917 8.20083C1.44754 7.84919 1.25 7.37228 1.25 6.875V3.125ZM11.25 3.125C11.25 2.62772 11.4475 2.15081 11.7992 1.79917C12.1508 1.44754 12.6277 1.25 13.125 1.25H16.875C17.3723 1.25 17.8492 1.44754 18.2008 1.79917C18.5525 2.15081 18.75 2.62772 18.75 3.125V6.875C18.75 7.37228 18.5525 7.84919 18.2008 8.20083C17.8492 8.55246 17.3723 8.75 16.875 8.75H13.125C12.6277 8.75 12.1508 8.55246 11.7992 8.20083C11.4475 7.84919 11.25 7.37228 11.25 6.875V3.125ZM1.25 13.125C1.25 12.6277 1.44754 12.1508 1.79917 11.7992C2.15081 11.4475 2.62772 11.25 3.125 11.25H6.875C7.37228 11.25 7.84919 11.4475 8.20083 11.7992C8.55246 12.1508 8.75 12.6277 8.75 13.125V16.875C8.75 17.3723 8.55246 17.8492 8.20083 18.2008C7.84919 18.5525 7.37228 18.75 6.875 18.75H3.125C2.62772 18.75 2.15081 18.5525 1.79917 18.2008C1.44754 17.8492 1.25 17.3723 1.25 16.875V13.125ZM11.25 13.125C11.25 12.6277 11.4475 12.1508 11.7992 11.7992C12.1508 11.4475 12.6277 11.25 13.125 11.25H16.875C17.3723 11.25 17.8492 11.4475 18.2008 11.7992C18.5525 12.1508 18.75 12.6277 18.75 13.125V16.875C18.75 17.3723 18.5525 17.8492 18.2008 18.2008C17.8492 18.5525 17.3723 18.75 16.875 18.75H13.125C12.6277 18.75 12.1508 18.5525 11.7992 18.2008C11.4475 17.8492 11.25 17.3723 11.25 16.875V13.125Z" fill="#C5AD60"/>
</svg>
