<svg width="20" height="20" viewBox="0 0 20 20" fill="current" xmlns="http://www.w3.org/2000/svg">
<path d="M13.75 2.5C13.75 2.16848 13.8817 1.85054 14.1161 1.61612C14.3505 1.3817 14.6685 1.25 15 1.25H17.5C17.8315 1.25 18.1495 1.3817 18.3839 1.61612C18.6183 1.85054 18.75 2.16848 18.75 2.5V17.5H19.375C19.5408 17.5 19.6997 17.5658 19.8169 17.6831C19.9342 17.8003 20 17.9592 20 18.125C20 18.2908 19.9342 18.4497 19.8169 18.5669C19.6997 18.6842 19.5408 18.75 19.375 18.75H0.625C0.45924 18.75 0.300269 18.6842 0.183058 18.5669C0.065848 18.4497 0 18.2908 0 18.125C0 17.9592 0.065848 17.8003 0.183058 17.6831C0.300269 17.5658 0.45924 17.5 0.625 17.5H1.25V13.75C1.25 13.4185 1.3817 13.1005 1.61612 12.8661C1.85054 12.6317 2.16848 12.5 2.5 12.5H5C5.33152 12.5 5.64946 12.6317 5.88388 12.8661C6.1183 13.1005 6.25 13.4185 6.25 13.75V17.5H7.5V8.75C7.5 8.41848 7.6317 8.10054 7.86612 7.86612C8.10054 7.6317 8.41848 7.5 8.75 7.5H11.25C11.5815 7.5 11.8995 7.6317 12.1339 7.86612C12.3683 8.10054 12.5 8.41848 12.5 8.75V17.5H13.75V2.5Z" fill="#A59557"/>
</svg>
