<svg xmlns="http://www.w3.org/2000/svg" viewBox="0 0 1051.11 969.52"><defs><style>.cls-1{fill:#fff;}</style></defs><g id="Слой_2" data-name="Слой 2"><g id="Слой_1-2" data-name="Слой 1"><path class="cls-1" d="M190,309.45c1.65,12.86,3.57,25.69,5.24,38.56,1.74,13.35,2.47,26.91,5.16,40.06,5.05,24.73,10.86,49.32,17,73.81,5.58,22.27,14.59,43.38,24.82,63.84,9.53,19.06,20.89,37.09,35.08,53.19,12,13.63,25.17,26.14,41.57,34,9.09,4.34,19.63,5.79,29.65,8,24.22,5.27,48.51,10.23,72.79,15.27q25.41,5.26,50.86,10.38c4.34.87,8.75,1.4,13.13,2.09.11-.49.23-1,.34-1.48-1.66-1-3.34-2-5-3.06-18.93-11.92-38.51-22.94-56.62-36-25.24-18.19-48.38-39-70.29-61.19-9.78-9.88-19.41-19.68-23.14-33.72-4-15.2-8.68-30.24-12.44-45.51-3.61-14.67-6.88-29.47-9.47-44.35-3.07-17.69-5.5-35.51-7.78-53.33-5-39-9.84-77.94-8.54-117.39.62-18.51,2-36.86,7.61-54.66,6.37-20.2,17.91-36.63,35.29-48.87s37.35-19.33,57.83-24.56a378.31,378.31,0,0,1,73.43-11.25c33.06-1.78,66.22-2.7,99.34-2.5,42.35.26,84.44,4,125.48,15.56,20.47,5.76,39.76,13.79,56.15,27.73a83.38,83.38,0,0,1,27.73,45.62c2.85,12.27,5.31,24.88,5.71,37.4.67,21.25.11,42.57-.88,63.82a833,833,0,0,1-11.4,105.09c-3.86,22.07-7.92,44.1-12,66.12a151.58,151.58,0,0,1-4,16.44q-5,16.38-10.6,32.57c-1.27,3.69-2.65,7.7-5.16,10.53-7.12,8.06-14.4,16.1-22.44,23.22-17.31,15.32-34.62,30.73-52.92,44.82C646.08,611.5,629.39,621.8,613,632.32c-7.36,4.71-15.45,8.27-23.21,12.35l.33,1.54a42.29,42.29,0,0,0,5-.44c6.84-1.41,13.63-3,20.47-4.41,18.12-3.64,36.27-7.11,54.37-10.8,23.63-4.83,47.28-9.58,70.82-14.85a62.89,62.89,0,0,0,18.9-7.23c20.32-12.42,36.53-29.26,50.14-48.74a284.27,284.27,0,0,0,33.32-62.46c6-15.79,12.34-31.57,16.46-47.88,6.06-24,11.44-48.27,15-72.73,5.93-40.51,10.69-81.2,15-121.91,3.22-30.49,1.48-60.94-6.37-90.71Q868.43,107.86,823,71.18C794.79,48.36,762.46,33.81,728,23.65c-11.45-3.37-23.11-6.13-34.81-8.52-16.58-3.37-33.19-6.93-50-9-20.8-2.51-41.75-4.14-62.68-5C557.74.14,534.89-.4,512.12.35c-30.75,1-61.54,2.36-91.91,8-20.71,3.84-41.59,7.06-62,12.06A309.74,309.74,0,0,0,298.4,42.16c-24.07,11.51-46.08,26-64.53,45.28a169.09,169.09,0,0,0-39,64.57c-6,18.13-10.43,36.43-10.63,55.53s-.5,37.94.49,56.85C185.52,279.46,188.11,294.44,190,309.45Z"/><path class="cls-1" d="M1051.1,906.41q-2.22-184.57-4.3-369.15h.12q-.76-52.71-1.52-105.4-1.65-131.37-3.23-262.75a68.24,68.24,0,0,0-.29-8.47c-1.05-7.36-8.84-12.59-13.79-8.9-4.38,3.26-8.87,7.22-11.42,11.9a289,289,0,0,0-14.9,32.2,356.57,356.57,0,0,0-13.08,38.27c-4.4,16.47-8,33.21-11,50-2.93,16.35-5.17,32.86-6.92,49.38-2.19,20.67-4.06,41.4-5.18,62.15-1.48,27.43-2.31,54.9-2.94,82.36-.18,7.78,1.28,15.71,6.7,21.94a220.82,220.82,0,0,0,16.19,17.17c7.15,6.65,13,14.4,16,23.38a74.2,74.2,0,0,1,3.26,24.52c-1.51,67.07-3.58,134.14-5.22,201.21-1.14,46.61-1.88,93.23-2.72,139.85a40.08,40.08,0,0,0,1,9.38c1.39,6.27,6,10.7,12.46,11,9,.43,18,.36,26.94,0,2.54-.11,5.23-1.72,7.46-3.22C1050.7,919.2,1051.18,913,1051.1,906.41Z"/><path class="cls-1" d="M659.24,375Q700,340.26,740.92,305.7c4.23-3.58,4.36-5.36-.34-8.25q-22-13.5-44.25-26.64c-17.75-10.47-37.05-17.53-56.52-23.79a301.5,301.5,0,0,0-45.39-10.93c-19.19-3-38.66-4.14-58-6.08-19.46,2-38.82,2.89-57.78,6.15-16.9,2.9-33.57,7.75-50,12.94-14.43,4.58-28.92,9.69-42.32,16.61-18.5,9.57-36,21-53.89,31.78-4.88,2.95-4.73,4.43-.48,8.06,9.65,8.23,19.18,16.61,28.88,24.78,18.73,15.78,37.65,31.35,56.23,47.3,3.8,3.26,6.93,3.27,11.2,1.57,24.93-10,51.08-15,77.65-17.28,27.4-2.35,54.83-2,82.19,2.14,18.68,2.82,37.27,6.06,54.44,13.89C649.93,381.28,654.15,379.31,659.24,375Z"/><path class="cls-1" d="M99.66,327.12c-1.62-21.4-2.9-42.83-4.33-64.25-.22-3.4-2.07-5-5.41-5.16-4.55-.18-5.64,1.11-5.58,7.16q.59,56.2,1.25,112.41c0,3.61-.63,6.36-5,6.4-4,0-5.91-1.67-6-6q-.75-35.46-1.92-70.92c-.5-14.8-1.41-29.6-2-44.41-.14-3.75-1.84-4.86-5.34-4.66-4.24.25-4,3.33-4.1,6.1-.61,23.14-1.24,46.28-1.68,69.43-.28,15-.22,30-.38,45,0,4.79-2.28,6.5-7,5.89-4.29-.55-4-3.66-4.06-6.72q-1-55.95-2-111.9c0-1.16,0-2.33-.12-3.49-.23-3-1.7-4.26-4.86-4.31-4.42-.06-4.78,2.79-4.9,5.92q-.69,18-1.27,35.95c-.84,26.13-1.77,52.26-2.32,78.4-.1,4.45-3.17,6.42-7.29,5.67-3.67-.67-3.84-3.47-3.8-6.51q.69-52.46,1.27-104.92c0-3,.22-6,.14-9-.11-4.08-2.15-5.9-6.4-5.48-3.81.37-3.91,3.11-4.1,5.74-.94,13.28-1.66,26.57-2.71,39.84-2,25-4.18,50.06-6.17,75.09C2.38,394.93,1.14,411.53.16,428.15A73.32,73.32,0,0,0,.79,444c1.83,11.44,10.52,18.49,18.32,25.68,14.36,13.25,21.11,29.22,20.21,48.7q-1.17,25.2-1.72,50.43Q34.83,692.4,32.18,816c-.67,30-1.32,60-2.62,89.89-.45,10.56,8.35,19.72,18.69,19.05,3.81-.25,7.66,0,11.49-.05,10.7-.12,17.94-7.29,17.72-18.06-.54-25.8-1.36-51.59-1.92-77.4q-1.32-60.18-2.45-120.38h-.73c0-12,.25-24,0-36-1.26-52.78-2.84-105.54-3.86-158.32-.14-7.29,1.53-14.84,3.61-21.9,3.55-12,12.89-20.11,21.62-28.39,7.81-7.4,14.12-15.6,13.93-26.86-.19-11.47-.94-22.95-1.81-34.4C103.87,377.86,101.57,352.5,99.66,327.12Z"/><path class="cls-1" d="M463.86,957.4q-13.68-29.53-27.35-59.09c-5.82-12.56-11.71-25.08-17.48-37.65-4-8.75-8-16.17-19.25-18.91-14.32-3.48-28-9.7-41.71-15.4-12.2-5.08-24.26-10.62-36-16.75a476.73,476.73,0,0,1-72.46-47,560.6,560.6,0,0,1-60.76-55.52c-1.11-1.16-1.71-2.81-2.56-4.23l-2.65,1.63c1.89,5.54,3.34,11.29,5.76,16.6,9.34,20.5,18.22,41.26,28.68,61.18a383,383,0,0,0,74.56,99.15c16.91,16.19,34.9,31.16,55.07,43,15.65,9.2,32.1,17.13,48.6,24.77,21.67,10,44.84,15.48,68.17,20.17,3.51.7,4.39-.92,3.21-3.87C466.62,962.72,465.12,960.11,463.86,957.4Z"/><path class="cls-1" d="M886.62,704.89c-2,2-4,4-5.94,6-21.71,22.58-45,43.42-70.45,61.68-12,8.61-24.18,17.11-37,24.43-17,9.69-34.43,18.55-52,27-10.4,5-21.4,8.85-32.28,12.8-8.06,2.92-16.42,5-24.52,7.87A9.08,9.08,0,0,0,660,849.1q-8.43,17.07-16.44,34.36-19,40.8-37.77,81.71a14.1,14.1,0,0,0-.63,3.67c1.24.16,2.59.71,3.71.42,17-4.47,34.21-8.42,50.95-13.76,31-9.88,59.19-25.49,85.45-44.55,20.46-14.85,39.48-31.43,55.6-50.92,12.3-14.87,24.09-30.26,35-46.19a410,410,0,0,0,24.91-42.24c7.58-14.56,14-29.75,20.56-44.8,3.09-7.06,5.41-14.44,8.07-21.68l-1.45-.71C887.48,704.56,886.92,704.59,886.62,704.89Z"/><path class="cls-1" d="M888.74,452.42Q869.8,499.51,851,546.63c-1.26,3.13-1.18,5.87,1.18,8.79,3.09,3.83,5.53,8.19,8.28,12.31q20.7,31,41.46,62c.86,1.28,2.36,2.13,3.89,3.48,9.43-49.43,1.66-154.69-13.92-185.92A41.79,41.79,0,0,0,888.74,452.42Z"/><path class="cls-1" d="M222,546.32c-5.56-13.85-11-27.74-16.49-41.61Q194.89,478,184.18,451.23c-.5-1.24-1.64-2.23-3.21-4.3-18.17,61.86-22.1,123.36-13.57,186.14a24.56,24.56,0,0,0,6-6c15.79-23.68,31.42-47.46,47.34-71.06C223,552.66,223.42,549.89,222,546.32Z"/><path class="cls-1" d="M485.88,854.28H472.61l-.68,1.09c3,2.38,5.86,4.85,8.89,7.14,17.47,13.18,35,26.25,52.38,39.56,2.85,2.19,4.68,2.06,7.37,0,18.82-14.41,37.76-28.67,56.62-43a25,25,0,0,0,3.06-3.34,20.16,20.16,0,0,0-4.48-1.08Q540.83,854.39,485.88,854.28Z"/></g></g></svg>