<svg width="20" height="20" viewBox="0 0 20 20" fill="none" xmlns="http://www.w3.org/2000/svg">
<path d="M0 2.5C0 1.83696 0.263392 1.20107 0.732233 0.732233C1.20107 0.263392 1.83696 0 2.5 0L17.5 0C18.163 0 18.7989 0.263392 19.2678 0.732233C19.7366 1.20107 20 1.83696 20 2.5V12.5C20 13.163 19.7366 13.7989 19.2678 14.2678C18.7989 14.7366 18.163 15 17.5 15H5.5175C5.18601 15.0001 4.86812 15.1318 4.63375 15.3663L1.0675 18.9325C0.980163 19.0201 0.868814 19.0797 0.747545 19.104C0.626276 19.1282 0.50054 19.116 0.386249 19.0687C0.271959 19.0215 0.174252 18.9414 0.105497 18.8386C0.0367407 18.7358 2.62686e-05 18.6149 0 18.4913L0 2.5ZM4.375 3.75C4.20924 3.75 4.05027 3.81585 3.93306 3.93306C3.81585 4.05027 3.75 4.20924 3.75 4.375C3.75 4.54076 3.81585 4.69973 3.93306 4.81694C4.05027 4.93415 4.20924 5 4.375 5H15.625C15.7908 5 15.9497 4.93415 16.0669 4.81694C16.1842 4.69973 16.25 4.54076 16.25 4.375C16.25 4.20924 16.1842 4.05027 16.0669 3.93306C15.9497 3.81585 15.7908 3.75 15.625 3.75H4.375ZM4.375 6.875C4.20924 6.875 4.05027 6.94085 3.93306 7.05806C3.81585 7.17527 3.75 7.33424 3.75 7.5C3.75 7.66576 3.81585 7.82473 3.93306 7.94194C4.05027 8.05915 4.20924 8.125 4.375 8.125H15.625C15.7908 8.125 15.9497 8.05915 16.0669 7.94194C16.1842 7.82473 16.25 7.66576 16.25 7.5C16.25 7.33424 16.1842 7.17527 16.0669 7.05806C15.9497 6.94085 15.7908 6.875 15.625 6.875H4.375ZM4.375 10C4.20924 10 4.05027 10.0658 3.93306 10.1831C3.81585 10.3003 3.75 10.4592 3.75 10.625C3.75 10.7908 3.81585 10.9497 3.93306 11.0669C4.05027 11.1842 4.20924 11.25 4.375 11.25H10.625C10.7908 11.25 10.9497 11.1842 11.0669 11.0669C11.1842 10.9497 11.25 10.7908 11.25 10.625C11.25 10.4592 11.1842 10.3003 11.0669 10.1831C10.9497 10.0658 10.7908 10 10.625 10H4.375Z" fill="#A59557"/>
</svg>
