<svg width="15" height="15" viewBox="0 0 15 15" fill="current" xmlns="http://www.w3.org/2000/svg">
<path d="M12.0499 0.137242C11.962 0.049366 11.8428 0 11.7185 0C11.5942 0 11.475 0.049366 11.3871 0.137242L9.84314 1.68129L13.3183 5.15655L14.8623 3.61345C14.9059 3.56991 14.9406 3.51818 14.9642 3.46123C14.9878 3.40428 15 3.34323 15 3.28158C15 3.21992 14.9878 3.15887 14.9642 3.10192C14.9406 3.04498 14.9059 2.99325 14.8623 2.94971L12.0499 0.137242ZM12.6555 5.81936L9.18036 2.34409L3.08687 8.43776H3.28092C3.40524 8.43776 3.52446 8.48715 3.61237 8.57506C3.70027 8.66296 3.74965 8.78219 3.74965 8.90651V9.37525H4.21838C4.3427 9.37525 4.46192 9.42464 4.54983 9.51254C4.63773 9.60045 4.68711 9.71968 4.68711 9.844V10.3127H5.15584C5.28016 10.3127 5.39938 10.3621 5.48728 10.45C5.57519 10.5379 5.62457 10.6572 5.62457 10.7815V11.2502H6.0933C6.21762 11.2502 6.33684 11.2996 6.42474 11.3875C6.51265 11.4754 6.56203 11.5947 6.56203 11.719V11.913L12.6555 5.81936ZM5.65457 12.8205C5.63484 12.7681 5.62468 12.7125 5.62457 12.6565V12.1877H5.15584C5.03153 12.1877 4.9123 12.1383 4.8244 12.0504C4.7365 11.9625 4.68711 11.8433 4.68711 11.719V11.2502H4.21838C4.09407 11.2502 3.97485 11.2008 3.88694 11.1129C3.79904 11.025 3.74965 10.9058 3.74965 10.7815V10.3127H3.28092C3.15661 10.3127 3.03739 10.2634 2.94948 10.1754C2.86158 10.0875 2.8122 9.96831 2.8122 9.844V9.37525H2.34347C2.28743 9.37516 2.23186 9.365 2.17941 9.34525L2.01161 9.51213C1.96694 9.55711 1.93185 9.61069 1.90848 9.66962L0.0335667 14.3571C-0.000529282 14.4422 -0.00887595 14.5356 0.00956148 14.6254C0.0279989 14.7153 0.0724096 14.7978 0.137288 14.8627C0.202166 14.9276 0.284659 14.972 0.374539 14.9904C0.464419 15.0089 0.557734 15.0005 0.642915 14.9664L5.33021 13.0915C5.38914 13.0681 5.44272 13.033 5.4877 12.9883L5.65457 12.8205Z" fill="#8A8A8C"/>
</svg>
