<svg width="370" height="40" viewBox="0 0 370 40" fill="none" xmlns="http://www.w3.org/2000/svg">
<path d="M13.1891 24.425C13.1891 25.075 13.0391 25.6167 12.7391 26.05C12.3557 26.6 11.9141 27.0583 11.4141 27.425C10.8641 27.8083 10.2307 28 9.51406 28H2.21406V13H9.51406C10.2141 13 10.8474 13.2 11.4141 13.6C11.5807 13.7333 11.8057 13.95 12.0891 14.25C12.3891 14.55 12.6057 14.7833 12.7391 14.95C13.0391 15.4 13.1891 15.9583 13.1891 16.625V18.425C13.1891 19.2083 12.9141 19.9083 12.3641 20.525C12.9141 21.125 13.1891 21.825 13.1891 22.625V24.425ZM10.1391 24.425V22.6C10.0391 22.4333 9.91406 22.275 9.76406 22.125C9.61406 21.975 9.51406 21.9 9.46406 21.9H5.26406V25.075H9.48906C9.53906 25.075 9.63906 25.0083 9.78906 24.875C9.93906 24.725 10.0557 24.575 10.1391 24.425ZM10.1391 18.45V16.625C10.0391 16.4583 9.91406 16.3 9.76406 16.15C9.61406 16 9.51406 15.925 9.46406 15.925H5.26406V19.075H9.48906C9.53906 19.075 9.63906 19.0083 9.78906 18.875C9.93906 18.725 10.0557 18.5833 10.1391 18.45ZM28.2324 28H18.5324V13H21.5824V25.05H28.2324V28ZM45.3012 28H42.0512L41.0512 25.125H35.8262C35.7262 25.4417 35.5512 25.925 35.3012 26.575C35.0678 27.2083 34.9012 27.6833 34.8012 28H31.5512L36.7512 13H40.1262L45.3012 28ZM40.1262 22.2L38.4262 17.375C38.2428 17.9083 37.9595 18.7167 37.5762 19.8C37.2095 20.8667 36.9345 21.6667 36.7512 22.2H40.1262ZM61.0281 16.6L58.2031 17.4C57.8865 16.7333 57.4448 16.2083 56.8781 15.825H53.7531C53.3531 16.1083 53.0281 16.4417 52.7781 16.825V24.275C52.7781 24.2917 52.8115 24.35 52.8781 24.45C52.9615 24.55 53.0781 24.675 53.2281 24.825C53.3948 24.975 53.5698 25.1 53.7531 25.2H56.9281C57.3948 24.8833 57.8198 24.3833 58.2031 23.7L61.0531 24.4C60.8531 24.9667 60.5698 25.5 60.2031 26C59.2031 27.4167 58.1031 28.125 56.9031 28.125H53.6281C53.0615 28.125 52.5115 27.9667 51.9781 27.65C51.7281 27.5 51.4115 27.2333 51.0281 26.85C50.6448 26.45 50.3531 26.1167 50.1531 25.85C49.8698 25.4 49.7281 24.8833 49.7281 24.3V16.725C49.7281 16.1083 49.8698 15.5917 50.1531 15.175C50.3365 14.925 50.6198 14.6 51.0031 14.2C51.4031 13.8 51.7365 13.525 52.0031 13.375C52.5698 13.0583 53.1115 12.9 53.6281 12.9H56.9031C58.0698 12.9 59.1615 13.6 60.1781 15C60.5115 15.4667 60.7948 16 61.0281 16.6ZM77.5953 28H73.8953L69.4203 21.8H69.1703V28H66.1203V13H69.1703V19.1H69.4203C69.4536 19.1 69.8453 18.5917 70.5953 17.575C71.3453 16.5583 72.087 15.5417 72.8203 14.525L73.9203 13H77.5203L71.9953 20.4L77.5953 28ZM91.6295 15.925H84.8295V19H91.2795V21.925H84.8295V28H81.7795V13H91.6295V15.925ZM108.476 24.275C108.476 24.8917 108.334 25.4083 108.051 25.825C107.351 26.725 106.743 27.3333 106.226 27.65C105.693 27.9667 105.143 28.125 104.576 28.125H100.776C100.209 28.125 99.6593 27.9667 99.126 27.65C98.876 27.5 98.551 27.225 98.151 26.825C97.7676 26.4083 97.4843 26.075 97.301 25.825C97.0176 25.4083 96.876 24.8917 96.876 24.275V16.75C96.876 16.1167 97.0176 15.5917 97.301 15.175C97.4843 14.925 97.7676 14.6 98.151 14.2C98.551 13.8 98.876 13.525 99.126 13.375C99.6593 13.0583 100.209 12.9 100.776 12.9H104.576C105.143 12.9 105.693 13.0583 106.226 13.375C106.693 13.6417 107.301 14.2417 108.051 15.175C108.334 15.5917 108.476 16.1167 108.476 16.75V24.275ZM105.426 24.275V16.75C105.193 16.35 104.893 16.0417 104.526 15.825H100.851C100.484 16.0917 100.176 16.4083 99.926 16.775V24.275C100.259 24.725 100.559 25.0333 100.826 25.2H104.501C104.818 24.9667 105.126 24.6583 105.426 24.275ZM125.127 13L120.752 20.375L125.302 28H121.902L119.077 23.125L116.252 28H112.852L117.377 20.375L113.027 13H116.427L119.077 17.625L121.752 13H125.127ZM251.163 28H248.088L243.238 19.175V28H240.188V13H243.313L248.113 21.95V13H251.163V28ZM268.125 24.275C268.125 24.8917 267.983 25.4083 267.7 25.825C267.516 26.0917 267.233 26.425 266.85 26.825C266.466 27.225 266.15 27.5 265.9 27.65C265.333 27.9667 264.783 28.125 264.25 28.125H260.675C260.108 28.125 259.558 27.9667 259.025 27.65C258.775 27.5 258.45 27.225 258.05 26.825C257.666 26.4083 257.383 26.075 257.2 25.825C256.916 25.4083 256.775 24.8917 256.775 24.275V13H259.825V24.25C260.225 24.75 260.533 25.0667 260.75 25.2H264.175C264.491 25 264.791 24.6917 265.075 24.275V13H268.125V24.275ZM284.031 15.925H280.006V28H276.931V15.925H272.881V13H284.031V15.925ZM299.874 18.725C299.874 19.3417 299.716 19.8833 299.399 20.35C299.299 20.5167 299.091 20.75 298.774 21.05C298.474 21.35 298.233 21.5667 298.049 21.7C297.916 21.8 297.716 21.9167 297.449 22.05L300.699 28H297.299L294.324 22.275H291.924V28H288.874V13H296.174C296.908 13 297.533 13.1917 298.049 13.575C298.549 13.9583 298.999 14.4167 299.399 14.95C299.716 15.3833 299.874 15.9333 299.874 16.6V18.725ZM296.824 18.75V16.525C296.658 16.2583 296.441 16.0583 296.174 15.925H291.924V19.35H296.174C296.224 19.35 296.324 19.2833 296.474 19.15C296.641 19 296.758 18.8667 296.824 18.75ZM308.685 28H305.61V13H308.685V28ZM324.807 15.925H320.782V28H317.707V15.925H313.657V13H324.807V15.925ZM332.826 28H329.751V13H332.826V28ZM350.073 24.275C350.073 24.8917 349.931 25.4083 349.648 25.825C348.948 26.725 348.339 27.3333 347.823 27.65C347.289 27.9667 346.739 28.125 346.173 28.125H342.373C341.806 28.125 341.256 27.9667 340.723 27.65C340.473 27.5 340.148 27.225 339.748 26.825C339.364 26.4083 339.081 26.075 338.898 25.825C338.614 25.4083 338.473 24.8917 338.473 24.275V16.75C338.473 16.1167 338.614 15.5917 338.898 15.175C339.081 14.925 339.364 14.6 339.748 14.2C340.148 13.8 340.473 13.525 340.723 13.375C341.256 13.0583 341.806 12.9 342.373 12.9H346.173C346.739 12.9 347.289 13.0583 347.823 13.375C348.289 13.6417 348.898 14.2417 349.648 15.175C349.931 15.5917 350.073 16.1167 350.073 16.75V24.275ZM347.023 24.275V16.75C346.789 16.35 346.489 16.0417 346.123 15.825H342.448C342.081 16.0917 341.773 16.4083 341.523 16.775V24.275C341.856 24.725 342.156 25.0333 342.423 25.2H346.098C346.414 24.9667 346.723 24.6583 347.023 24.275ZM366.524 28H363.449L358.599 19.175V28H355.549V13H358.674L363.474 21.95V13H366.524V28Z" fill="#B3B3B3" fill-opacity="0.8"/>
<path d="M170.135 12.7673C170.205 13.2979 170.288 13.8272 170.359 14.3582C170.434 14.909 170.465 15.4684 170.58 16.011C170.796 17.0313 171.045 18.0458 171.308 19.0562C171.547 19.975 171.932 20.846 172.37 21.6901C172.778 22.4765 173.265 23.2204 173.872 23.8846C174.386 24.447 174.95 24.9631 175.652 25.2874C176.041 25.4664 176.492 25.5263 176.921 25.6174C177.958 25.8349 178.998 26.0395 180.037 26.2475C180.763 26.3921 181.488 26.5349 182.215 26.6757C182.401 26.7116 182.589 26.7335 182.777 26.7619C182.782 26.7417 182.787 26.7207 182.792 26.7009C182.72 26.6596 182.649 26.6184 182.577 26.5746C181.767 26.0828 180.929 25.6282 180.153 25.0893C179.073 24.3389 178.082 23.4803 177.144 22.5648C176.726 22.1572 176.313 21.7528 176.154 21.1736C175.982 20.5464 175.782 19.9259 175.621 19.2959C175.466 18.6907 175.326 18.0801 175.216 17.4661C175.084 16.7363 174.98 16.0011 174.883 15.2659C174.668 13.6568 174.461 12.0502 174.517 10.4226C174.543 9.65892 174.603 8.90184 174.843 8.16745C175.115 7.33404 175.609 6.65618 176.354 6.15118C177.098 5.64619 177.953 5.35367 178.829 5.13789C179.859 4.88416 180.912 4.72869 181.973 4.67374C183.388 4.6003 184.808 4.56234 186.226 4.5706C188.039 4.58132 189.841 4.73563 191.598 5.21257C192.474 5.45021 193.3 5.78151 194.002 6.35665C194.601 6.84169 195.018 7.503 195.189 8.23883C195.311 8.74506 195.416 9.26532 195.433 9.78187C195.462 10.6586 195.438 11.5382 195.396 12.4149C195.328 13.8687 195.165 15.3169 194.908 16.7507C194.742 17.6613 194.569 18.5702 194.394 19.4787C194.35 19.7077 194.293 19.9341 194.223 20.157C194.08 20.6075 193.929 21.0554 193.769 21.5007C193.714 21.653 193.655 21.8184 193.548 21.9352C193.243 22.2677 192.931 22.5994 192.587 22.8932C191.846 23.5253 191.105 24.161 190.322 24.7424C189.66 25.2292 188.946 25.6542 188.244 26.0882C187.929 26.2825 187.583 26.4294 187.25 26.5977L187.264 26.6613C187.336 26.6593 187.408 26.6532 187.479 26.6431C187.771 26.5849 188.062 26.5193 188.355 26.4612C189.131 26.311 189.908 26.1678 190.683 26.0156C191.694 25.8163 192.707 25.6203 193.714 25.4029C193.999 25.3462 194.272 25.2455 194.524 25.1046C195.394 24.5922 196.087 23.8974 196.67 23.0937C197.255 22.2954 197.734 21.4297 198.097 20.5167C198.354 19.8653 198.625 19.2142 198.801 18.5413C199.061 17.5511 199.291 16.5498 199.443 15.5406C199.697 13.8693 199.901 12.1905 200.086 10.5109C200.224 9.25294 200.149 7.99664 199.813 6.7684C199.391 5.22288 198.531 3.94568 197.234 2.93678C196.027 1.99528 194.643 1.39498 193.167 0.975801C192.677 0.836763 192.178 0.722891 191.677 0.624284C190.967 0.485245 190.256 0.338368 189.536 0.252964C188.646 0.149406 187.749 0.0821557 186.853 0.0466746C185.878 0.00582976 184.9 -0.0164486 183.925 0.0144948C182.609 0.0557526 181.291 0.111863 179.99 0.344557C179.104 0.502986 178.21 0.635837 177.336 0.842127C176.453 1.05572 175.595 1.35643 174.776 1.73948C173.745 2.21436 172.803 2.81219 172.013 3.60764C171.255 4.36315 170.685 5.27381 170.343 6.27165C170.086 7.01966 169.897 7.77468 169.888 8.5627C169.88 9.35073 169.867 10.128 169.909 10.9082C169.943 11.53 170.054 12.148 170.135 12.7673Z" fill="#B3B3B3"/>
<path d="M207 37.3965C206.936 32.3199 206.875 27.2431 206.816 22.1662H206.821C206.799 20.7164 206.777 19.2669 206.756 17.8176C206.709 14.2043 206.662 10.5908 206.617 6.97716C206.621 6.86054 206.617 6.74383 206.605 6.6277C206.56 6.32405 206.227 6.10827 206.015 6.26051C205.827 6.39501 205.635 6.55839 205.526 6.75148C205.285 7.1813 205.072 7.62497 204.888 8.07998C204.67 8.59566 204.483 9.12282 204.328 9.65892C204.139 10.3384 203.985 11.0291 203.857 11.7218C203.731 12.3964 203.636 13.0775 203.561 13.7591C203.467 14.6119 203.387 15.4672 203.339 16.3233C203.276 17.455 203.24 18.5883 203.213 19.7213C203.205 20.0423 203.268 20.3694 203.5 20.6265C203.718 20.8744 203.949 21.1108 204.193 21.3349C204.499 21.6092 204.75 21.929 204.878 22.2995C204.983 22.6268 205.03 22.9688 205.018 23.3111C204.953 26.0783 204.864 28.8455 204.794 31.6126C204.745 33.5356 204.714 35.4591 204.678 37.3825C204.676 37.5127 204.69 37.6426 204.72 37.7695C204.78 38.0282 204.977 38.211 205.254 38.2234C205.639 38.2411 206.024 38.2382 206.407 38.2234C206.516 38.2188 206.631 38.1524 206.727 38.0905C206.983 37.9242 207.003 37.6684 207 37.3965Z" fill="#B3B3B3"/>
<path d="M190.224 15.4717C191.387 14.5162 192.553 13.5631 193.72 12.6126C193.902 12.4648 193.907 12.3914 193.706 12.2722C193.078 11.9009 192.447 11.5345 191.811 11.1731C191.052 10.7411 190.225 10.4498 189.392 10.1915C188.757 9.99305 188.107 9.84228 187.449 9.74059C186.627 9.61682 185.793 9.56979 184.965 9.48975C184.132 9.57226 183.304 9.60898 182.492 9.74348C181.768 9.86313 181.055 10.0632 180.351 10.2774C179.734 10.4663 179.113 10.6771 178.539 10.9627C177.747 11.3575 176.998 11.8291 176.232 12.2738C176.023 12.3955 176.03 12.4566 176.212 12.6064C176.625 12.9459 177.033 13.2917 177.448 13.6287C178.25 14.2798 179.06 14.9222 179.856 15.5802C180.018 15.7147 180.152 15.7151 180.335 15.645C181.402 15.2324 182.522 15.0261 183.659 14.9321C184.832 14.8351 186.007 14.8496 187.178 15.0204C187.978 15.1367 188.774 15.2704 189.509 15.5934C189.825 15.7308 190.006 15.6495 190.224 15.4717Z" fill="#B3B3B3"/>
<path d="M166.267 13.4963C166.198 12.6134 166.143 11.7292 166.082 10.8455C166.072 10.7052 165.993 10.6392 165.85 10.6326C165.655 10.6252 165.609 10.6784 165.611 10.928C165.628 12.4738 165.646 14.0197 165.665 15.5658C165.665 15.7147 165.638 15.8282 165.451 15.8298C165.279 15.8298 165.198 15.7609 165.194 15.5823C165.172 14.6069 165.145 13.6316 165.112 12.6563C165.09 12.0457 165.051 11.435 165.026 10.824C165.02 10.6693 164.947 10.6235 164.797 10.6318C164.616 10.6421 164.626 10.7691 164.622 10.8834C164.596 11.8381 164.569 12.7928 164.55 13.748C164.538 14.3668 164.541 14.9857 164.534 15.6046C164.534 15.8022 164.436 15.8727 164.234 15.8476C164.05 15.8249 164.063 15.6966 164.06 15.5703C164.032 14.0314 164.003 12.4925 163.975 10.9536C163.975 10.9057 163.975 10.8574 163.969 10.8096C163.96 10.6858 163.897 10.6338 163.761 10.6318C163.572 10.6293 163.557 10.7469 163.552 10.876C163.532 11.3711 163.514 11.8655 163.497 12.3592C163.461 13.4373 163.421 14.5154 163.398 15.5938C163.394 15.7774 163.262 15.8587 163.086 15.8278C162.929 15.8001 162.921 15.6846 162.923 15.5592C162.943 14.1163 162.961 12.6733 162.978 11.2304C162.978 11.1066 162.987 10.9829 162.983 10.8591C162.979 10.6908 162.891 10.6157 162.71 10.633C162.546 10.6483 162.542 10.7613 162.534 10.8698C162.494 11.4177 162.463 11.966 162.418 12.5135C162.332 13.545 162.239 14.5789 162.154 15.6116C162.102 16.294 162.049 16.9789 162.007 17.6646C161.992 17.8828 162.001 18.1021 162.034 18.3185C162.113 18.7905 162.485 19.0814 162.819 19.378C163.433 19.9247 163.722 20.5835 163.684 21.3873C163.651 22.0804 163.626 22.7739 163.61 23.4679C163.531 26.8673 163.454 30.2668 163.378 33.6664C163.35 34.9041 163.322 36.1419 163.266 37.3751C163.247 37.8108 163.624 38.1887 164.066 38.161C164.229 38.1507 164.394 38.161 164.558 38.159C165.016 38.154 165.326 37.8582 165.317 37.4139C165.294 36.3494 165.258 35.2854 165.235 34.2205C165.197 32.5652 165.162 30.9097 165.13 29.2539H165.098C165.098 28.7588 165.109 28.2637 165.098 27.7686C165.044 25.591 164.977 23.4142 164.933 21.2367C164.927 20.9359 164.999 20.6244 165.088 20.3331C165.24 19.838 165.64 19.5034 166.013 19.1618C166.348 18.8565 166.618 18.5182 166.61 18.0536C166.601 17.5804 166.569 17.1068 166.532 16.6344C166.447 15.5897 166.349 14.5434 166.267 13.4963Z" fill="#B3B3B3"/>
<path d="M181.859 39.5003C181.469 38.6881 181.078 37.8754 180.688 37.0624C180.439 36.5442 180.187 36.0276 179.94 35.509C179.769 35.148 179.597 34.8419 179.116 34.7288C178.503 34.5852 177.917 34.3286 177.33 34.0934C176.808 33.8839 176.291 33.6553 175.789 33.4024C174.696 32.8478 173.658 32.1988 172.687 31.4633C171.763 30.7622 170.893 29.9966 170.086 29.1726C170.038 29.1248 170.012 29.0567 169.976 28.9981L169.862 29.0654C169.943 29.2939 170.005 29.5312 170.109 29.7502C170.509 30.596 170.889 31.4525 171.337 32.2744C172.163 33.7961 173.241 35.1778 174.529 36.3651C175.253 37.0331 176.023 37.6507 176.887 38.1392C177.557 38.5188 178.261 38.8459 178.967 39.1611C179.895 39.5737 180.887 39.7998 181.886 39.9933C182.036 40.0222 182.074 39.9554 182.023 39.8336C181.977 39.7198 181.913 39.6121 181.859 39.5003Z" fill="#B3B3B3"/>
<path d="M199.958 29.0822C199.872 29.1648 199.787 29.2473 199.704 29.3298C198.774 30.2614 197.777 31.1212 196.688 31.8746C196.174 32.2298 195.653 32.5805 195.104 32.8825C194.376 33.2823 193.63 33.6478 192.877 33.9965C192.432 34.2027 191.961 34.3616 191.496 34.5246C191.15 34.645 190.793 34.7308 190.446 34.8493C190.362 34.8866 190.295 34.9514 190.256 35.032C190.016 35.5015 189.781 35.9741 189.552 36.4496C189.01 37.5719 188.471 38.6956 187.935 39.8208C187.919 39.8699 187.91 39.9208 187.908 39.9722C187.961 39.9788 188.019 40.0015 188.067 39.9896C188.795 39.8051 189.532 39.6422 190.248 39.4219C191.576 39.0142 192.782 38.3702 193.907 37.5838C194.783 36.9711 195.597 36.2871 196.287 35.483C196.814 34.8695 197.318 34.2345 197.785 33.5773C198.177 33.0174 198.533 32.4354 198.852 31.8345C199.176 31.2338 199.451 30.6071 199.732 29.9862C199.864 29.6949 199.964 29.3904 200.078 29.0917L200.015 29.0624C199.995 29.0686 199.971 29.0699 199.958 29.0822Z" fill="#B3B3B3"/>
<path d="M200.049 18.6659C199.508 19.9612 198.97 21.2568 198.433 22.5528C198.379 22.682 198.383 22.795 198.484 22.9155C198.616 23.0735 198.72 23.2534 198.838 23.4234C199.429 24.276 200.021 25.1287 200.613 25.9814C200.65 26.0342 200.714 26.0692 200.78 26.1249C201.183 24.0856 200.851 19.7428 200.184 18.4543C200.134 18.5216 200.088 18.5924 200.049 18.6659Z" fill="#B3B3B3"/>
<path d="M171.505 22.54C171.267 21.9686 171.034 21.3955 170.799 20.8233C170.496 20.0886 170.191 19.3531 169.886 18.6168C169.864 18.5656 169.815 18.5248 169.748 18.4394C168.97 20.9916 168.802 23.529 169.167 26.1191C169.267 26.0516 169.354 25.9678 169.424 25.8716C170.1 24.8946 170.769 23.9135 171.451 22.9398C171.548 22.8016 171.566 22.6873 171.505 22.54Z" fill="#B3B3B3"/>
<path d="M182.802 35.2458H182.234L182.205 35.2908C182.333 35.389 182.455 35.4909 182.585 35.5853C183.333 36.1291 184.084 36.6684 184.828 37.2175C184.95 37.3079 185.028 37.3025 185.143 37.2175C185.949 36.623 186.76 36.0346 187.567 35.4434C187.615 35.4014 187.659 35.3553 187.698 35.3056C187.636 35.2837 187.572 35.2688 187.506 35.2611C185.938 35.2539 184.37 35.2488 182.802 35.2458Z" fill="#B3B3B3"/>
</svg>
