<svg width="20" height="20" viewBox="0 0 20 20" fill="current" xmlns="http://www.w3.org/2000/svg">
<path fill-rule="evenodd" clip-rule="evenodd" d="M14.1926 2.05752C14.1345 1.99931 14.0656 1.95314 13.9896 1.92163C13.9137 1.89012 13.8323 1.8739 13.7501 1.8739C13.6679 1.8739 13.5865 1.89012 13.5106 1.92163C13.4346 1.95314 13.3657 1.99931 13.3076 2.05752L5.8076 9.55752C5.7494 9.61558 5.70322 9.68455 5.67171 9.76048C5.64021 9.83641 5.62399 9.91781 5.62399 10C5.62399 10.0822 5.64021 10.1636 5.67171 10.2396C5.70322 10.3155 5.7494 10.3845 5.8076 10.4425L13.3076 17.9425C13.425 18.0599 13.5841 18.1258 13.7501 18.1258C13.9161 18.1258 14.0752 18.0599 14.1926 17.9425C14.31 17.8252 14.3759 17.666 14.3759 17.5C14.3759 17.334 14.31 17.1749 14.1926 17.0575L7.13385 10L14.1926 2.94252C14.2508 2.88446 14.297 2.81549 14.3285 2.73956C14.36 2.66363 14.3762 2.58223 14.3762 2.50002C14.3762 2.41781 14.36 2.33641 14.3285 2.26048C14.297 2.18455 14.2508 2.11558 14.1926 2.05752Z" fill="#8A8A8C"/>
</svg>
