<svg width="30" height="30" viewBox="0 0 30 30" fill="current" xmlns="http://www.w3.org/2000/svg">
<path d="M20.625 9.375C20.625 10.8668 20.0324 12.2976 18.9775 13.3525C17.9226 14.4074 16.4918 15 15 15C13.5082 15 12.0774 14.4074 11.0225 13.3525C9.96763 12.2976 9.375 10.8668 9.375 9.375C9.375 7.88316 9.96763 6.45242 11.0225 5.39752C12.0774 4.34263 13.5082 3.75 15 3.75C16.4918 3.75 17.9226 4.34263 18.9775 5.39752C20.0324 6.45242 20.625 7.88316 20.625 9.375ZM3.75 24.375C3.75 26.25 5.625 26.25 5.625 26.25H15.48C15.1613 25.3466 14.9989 24.3955 15 23.4375C14.9988 22.2316 15.2566 21.0395 15.7561 19.9419C16.2555 18.8443 16.985 17.8668 17.895 17.0756C17.0194 16.9463 16.0575 16.875 15 16.875C5.625 16.875 3.75 22.5 3.75 24.375ZM22.2862 17.7375C22.6237 16.5881 24.2512 16.5881 24.5906 17.7375L24.6712 18.015C24.7216 18.1871 24.8099 18.3458 24.9297 18.4793C25.0494 18.6128 25.1976 18.7178 25.3632 18.7865C25.5289 18.8552 25.7079 18.8859 25.887 18.8764C26.066 18.8668 26.2407 18.8172 26.3981 18.7312L26.6531 18.5925C27.705 18.0188 28.8563 19.17 28.2844 20.2219L28.1438 20.4769C28.0581 20.6342 28.0088 20.8087 27.9995 20.9876C27.9901 21.1665 28.0209 21.3452 28.0896 21.5106C28.1582 21.676 28.2631 21.8239 28.3964 21.9436C28.5297 22.0632 28.6881 22.1515 28.86 22.2019L29.1394 22.2862C30.2869 22.6237 30.2869 24.2512 29.1394 24.5906L28.8581 24.6712C28.6863 24.722 28.5281 24.8106 28.395 24.9306C28.2619 25.0505 28.1573 25.1987 28.089 25.3643C28.0207 25.53 27.9903 25.7088 28.0001 25.8877C28.0099 26.0665 28.0596 26.241 28.1456 26.3981L28.2844 26.6531C28.8563 27.705 27.705 28.8563 26.6531 28.2844L26.3981 28.1438C26.2408 28.0581 26.0663 28.0088 25.8874 27.9995C25.7085 27.9901 25.5298 28.0209 25.3644 28.0896C25.199 28.1582 25.0511 28.2631 24.9314 28.3964C24.8118 28.5297 24.7235 28.6881 24.6731 28.86L24.5888 29.1394C24.2513 30.2869 22.6238 30.2869 22.2844 29.1394L22.2038 28.8581C22.153 28.6863 22.0644 28.5281 21.9444 28.395C21.8245 28.2619 21.6763 28.1573 21.5107 28.089C21.345 28.0207 21.1662 27.9903 20.9873 28.0001C20.8085 28.0099 20.634 28.0596 20.4769 28.1456L20.2219 28.2844C19.17 28.8563 18.0187 27.705 18.5906 26.6531L18.7312 26.3981C18.8169 26.2408 18.8662 26.0663 18.8755 25.8874C18.8849 25.7085 18.8541 25.5298 18.7854 25.3644C18.7168 25.199 18.6119 25.0511 18.4786 24.9314C18.3453 24.8118 18.1869 24.7235 18.015 24.6731L17.7375 24.5888C16.5881 24.2513 16.5881 22.6238 17.7375 22.2844L18.015 22.2038C18.1871 22.1534 18.3458 22.0651 18.4793 21.9453C18.6128 21.8256 18.7178 21.6774 18.7865 21.5118C18.8552 21.3461 18.8859 21.1671 18.8764 20.988C18.8668 20.809 18.8172 20.6343 18.7312 20.4769L18.5925 20.2219C18.0188 19.17 19.17 18.0187 20.2219 18.5906L20.4769 18.7312C20.6342 18.8169 20.8087 18.8662 20.9876 18.8755C21.1665 18.8849 21.3452 18.8541 21.5106 18.7854C21.676 18.7168 21.8239 18.6119 21.9436 18.4786C22.0632 18.3453 22.1515 18.1869 22.2019 18.015L22.2862 17.7375ZM26.25 23.4375C26.25 23.0682 26.1773 22.7024 26.0359 22.3612C25.8946 22.02 25.6874 21.7099 25.4262 21.4488C25.1651 21.1876 24.855 20.9804 24.5138 20.8391C24.1726 20.6977 23.8068 20.625 23.4375 20.625C23.0682 20.625 22.7024 20.6977 22.3612 20.8391C22.02 20.9804 21.7099 21.1876 21.4488 21.4488C21.1876 21.7099 20.9804 22.02 20.8391 22.3612C20.6977 22.7024 20.625 23.0682 20.625 23.4375C20.625 24.1834 20.9213 24.8988 21.4488 25.4262C21.9762 25.9537 22.6916 26.25 23.4375 26.25C24.1834 26.25 24.8988 25.9537 25.4262 25.4262C25.9537 24.8988 26.25 24.1834 26.25 23.4375Z" fill="#A59557"/>
</svg>
